<svg width="69" height="48" viewBox="0 0 69 48" version="1.1" xmlns="http://www.w3.org/2000/svg" xmlns:xlink="http://www.w3.org/1999/xlink">
<title>Arrow</title>
<desc>Created using Figma</desc>
<g id="Canvas" transform="matrix(3 0 0 3 -3177 4227)">
<g id="Arrow">
<use xlink:href="#path0_stroke" transform="matrix(-1 1.22465e-16 -1.22465e-16 -1 1082 -1401)" fill="#F7F7F7"/>
</g>
</g>
<defs>
<path id="path0_stroke" d="M 22.7071 0.707107C 23.0976 0.316583 23.0976 -0.316583 22.7071 -0.707107L 16.3431 -7.07107C 15.9526 -7.46159 15.3195 -7.46159 14.9289 -7.07107C 14.5384 -6.68054 14.5384 -6.04738 14.9289 -5.65685L 20.5858 0L 14.9289 5.65685C 14.5384 6.04738 14.5384 6.68054 14.9289 7.07107C 15.3195 7.46159 15.9526 7.46159 16.3431 7.07107L 22.7071 0.707107ZM 0 1L 22 1L 22 -1L 0 -1L 0 1Z"/>
</defs>
</svg>
